<?xml version="1.0" standalone="no"?>
<!DOCTYPE svg PUBLIC "-//W3C//DTD SVG 20010904//EN"
 "http://www.w3.org/TR/2001/REC-SVG-20010904/DTD/svg10.dtd">
<svg version="1.0" xmlns="http://www.w3.org/2000/svg"
 width="256.000000pt" height="256.000000pt" viewBox="0 0 256.000000 256.000000"
 preserveAspectRatio="xMidYMid meet">
<metadata>
Created by potrace 1.14, written by Peter Selinger 2001-2017
</metadata>
<g transform="translate(0.000000,256.000000) scale(0.100000,-0.100000)"
fill="#000000" stroke="none">
<path d="M1620 2551 c0 -6 -7 -11 -15 -11 -20 0 -29 -24 -17 -46 10 -19 -3
-74 -21 -85 -17 -11 -79 12 -103 38 -13 14 -24 20 -24 14 0 -7 -4 -10 -9 -6
-5 3 -16 -4 -25 -16 -18 -26 -4 -57 30 -65 13 -3 27 -20 36 -42 l13 -36 -47
-46 c-27 -26 -48 -55 -48 -64 0 -9 -6 -16 -12 -16 -10 0 -10 -2 -1 -8 7 -4 9
-13 4 -20 -12 -20 -2 -178 14 -225 20 -56 19 -74 -4 -82 -12 -4 -18 -14 -17
-34 1 -16 5 -33 9 -37 4 -4 7 -18 7 -30 0 -12 7 -30 16 -38 8 -9 12 -16 8 -16
-3 0 -2 -6 3 -12 6 -7 13 -25 17 -40 3 -16 10 -27 14 -26 19 4 43 -17 62 -54
l21 -40 -21 -5 c-11 -3 -20 -10 -20 -15 0 -5 -5 -8 -12 -6 -12 4 -31 -9 -70
-44 -10 -10 -20 -18 -23 -18 -3 0 -10 0 -16 0 -5 0 -7 -4 -4 -10 3 -5 -1 -10
-10 -10 -20 0 -25 15 -29 77 -1 27 -5 54 -9 60 -4 5 -3 13 0 17 10 9 12 40 13
141 1 100 -2 123 -16 133 -5 4 -11 18 -13 32 -4 33 -34 100 -43 100 -5 0 -8
10 -8 22 0 12 3 19 6 15 3 -3 13 2 23 12 21 21 25 61 5 61 -8 0 -14 4 -14 9 0
15 -43 3 -52 -13 -5 -9 -15 -13 -22 -10 -18 7 -14 111 6 143 11 18 11 23 -2
31 -21 13 -43 -9 -35 -37 5 -23 -26 -68 -39 -55 -3 3 -6 -4 -6 -16 0 -12 -5
-22 -11 -22 -10 0 -41 26 -39 32 3 7 -22 56 -45 90 -20 31 -22 39 -11 50 11
11 11 16 0 26 -19 17 -32 15 -44 -7 -7 -13 -7 -22 0 -26 13 -8 13 -27 -2 -62
-6 -15 -13 -37 -15 -48 -3 -11 -6 -27 -8 -35 -2 -8 -4 -18 -4 -21 -2 -16 -41
-15 -82 2 -24 10 -40 18 -36 18 5 1 2 7 -6 15 -20 20 -56 10 -50 -14 3 -10 13
-20 23 -23 19 -5 41 -61 33 -83 -2 -6 -15 -9 -29 -6 -15 3 -24 0 -24 -9 0 -7
-3 -10 -6 -6 -4 3 -13 -1 -22 -10 -12 -12 -13 -19 -4 -34 10 -15 8 -25 -6 -51
-32 -59 -64 -141 -67 -173 -2 -29 -7 -46 -26 -93 -7 -17 -6 -21 2 -16 8 5 9 3
4 -6 -4 -7 -10 -27 -12 -43 -4 -35 -19 -48 -50 -42 -12 2 -24 -3 -27 -11 -4
-12 -2 -12 14 -4 15 8 20 8 20 -1 0 -9 3 -9 14 0 17 15 23 5 21 -34 0 -16 4
-46 11 -65 14 -44 13 -85 -3 -86 -7 -1 -20 -2 -29 -3 -8 0 -12 -5 -9 -11 3 -5
0 -10 -7 -10 -24 -1 -67 -47 -63 -68 3 -18 -44 -87 -72 -105 -7 -4 -13 -15
-13 -22 0 -8 -5 -15 -11 -15 -5 0 -7 -4 -4 -10 3 -5 1 -10 -5 -10 -6 0 -16
-12 -22 -27 -7 -16 -20 -37 -30 -48 -23 -27 -44 -92 -43 -130 2 -33 24 -85 37
-85 4 0 8 -7 8 -15 0 -8 3 -15 8 -15 17 0 115 -97 108 -108 -9 -15 -46 -16
-46 0 0 6 -3 8 -6 5 -4 -3 -16 -1 -27 5 -34 18 -89 16 -123 -4 -53 -31 -64
-81 -32 -148 21 -45 94 -127 110 -122 4 1 8 -4 8 -11 0 -8 12 -20 26 -27 14
-8 30 -22 35 -31 7 -14 2 -20 -29 -30 -20 -6 -42 -15 -48 -20 -6 -5 -14 -6
-17 -2 -4 3 -13 0 -21 -6 -8 -7 -20 -10 -26 -6 -5 3 -10 1 -10 -4 0 -6 -8 -11
-18 -11 -10 0 -27 -7 -39 -15 -18 -13 -20 -19 -11 -52 5 -21 12 -48 15 -60 3
-13 10 -23 16 -23 6 0 7 -3 4 -6 -4 -4 2 -19 13 -34 20 -28 56 -45 65 -30 3 4
15 6 28 3 12 -3 19 -3 15 2 -4 4 5 17 19 29 26 23 35 72 16 85 -15 9 -28 55
-14 47 6 -4 11 -3 11 1 0 5 21 15 47 22 45 14 47 13 61 -7 8 -12 21 -22 28
-22 8 0 14 -5 14 -11 0 -5 4 -7 10 -4 21 13 72 13 97 0 22 -11 32 -12 62 0 45
17 71 16 71 -2 0 -8 4 -12 9 -8 5 3 12 1 16 -5 4 -6 10 -8 15 -5 4 2 23 -8 41
-24 18 -16 37 -27 41 -25 4 3 8 0 8 -6 0 -6 5 -8 10 -5 6 3 13 -1 16 -9 3 -9
10 -14 14 -11 5 3 11 1 15 -5 4 -6 11 -8 16 -5 5 4 9 1 9 -6 0 -7 3 -9 7 -6 3
4 12 2 20 -4 9 -8 13 -8 13 -1 0 6 6 9 13 7 6 -2 27 16 46 41 37 49 43 90 18
128 -17 26 -81 35 -90 13 -4 -12 -72 -16 -134 -9 -23 3 -13 29 15 40 35 14
105 36 114 37 3 0 10 3 14 8 4 4 14 7 23 7 35 0 123 52 169 99 52 53 68 57
106 24 13 -12 27 -19 30 -16 3 4 6 1 6 -5 0 -7 6 -12 13 -12 7 0 26 -13 41
-28 22 -24 24 -31 13 -40 -8 -7 -16 -9 -20 -6 -3 3 -8 -3 -11 -14 -8 -25 2
-86 15 -90 5 -2 9 -10 9 -18 0 -8 5 -14 10 -14 6 0 10 -4 10 -10 0 -17 33 -49
43 -43 6 3 7 1 3 -5 -8 -13 27 -34 52 -30 9 2 23 9 30 15 12 11 27 15 48 12 4
0 10 3 13 8 3 4 31 19 61 33 58 27 113 67 106 79 -3 4 8 8 24 9 22 2 34 -4 47
-25 23 -36 39 -53 51 -53 5 0 17 -9 27 -20 10 -11 22 -17 26 -14 5 3 9 0 9 -7
0 -7 3 -10 6 -6 4 3 12 1 20 -6 34 -31 41 -34 61 -26 26 9 63 68 68 109 2 18
6 35 9 38 3 3 1 11 -4 17 -13 16 1 26 70 50 30 10 71 25 90 34 19 8 38 14 43
13 4 -1 7 2 7 8 0 5 6 10 14 10 8 0 31 15 50 34 20 18 36 32 36 30 0 -2 8 4
18 14 11 9 17 20 15 25 -2 4 -1 7 4 7 22 0 51 124 32 135 -5 4 -7 10 -4 15 3
5 1 11 -5 15 -6 4 -8 11 -5 16 4 5 1 9 -5 9 -6 0 -20 9 -31 19 -11 10 -30 21
-42 23 -33 6 -187 1 -229 -7 -31 -6 -38 -5 -38 8 0 9 5 19 11 23 12 7 44 75
41 87 -1 4 3 7 9 7 6 0 9 7 5 15 -3 8 -1 15 3 15 10 0 12 209 2 225 -5 10 -10
38 -14 88 -1 15 -5 27 -8 27 -5 0 -28 67 -32 90 -1 3 -9 14 -19 24 -10 11 -18
23 -18 27 0 13 -76 89 -88 89 -7 0 -12 3 -12 8 0 7 -69 45 -102 55 -18 6 -44
47 -29 47 5 0 12 12 17 28 15 54 25 73 34 67 13 -8 37 28 44 65 8 46 9 50 26
80 8 14 13 29 12 33 -1 4 2 17 8 27 8 15 7 20 -2 21 -7 1 -20 2 -28 3 -11 1
-14 12 -13 46 4 85 4 175 -1 200 -2 14 -6 37 -9 51 -7 38 -47 112 -68 127 -10
7 -25 19 -33 27 -8 8 -20 15 -26 15 -6 0 -8 5 -5 10 3 6 -1 10 -9 10 -18 0
-17 -2 -21 65 -1 28 3 57 10 65 7 8 15 23 18 32 8 22 -31 48 -58 37 -11 -4
-16 -8 -12 -8 5 -1 1 -8 -7 -17 -9 -8 -14 -19 -11 -24 3 -5 -12 -22 -32 -40
l-38 -31 -19 23 c-10 13 -22 22 -26 21 -4 -1 -7 11 -6 28 1 22 -6 35 -21 46
-15 10 -23 11 -23 4z"/>
<path d="M2438 1763 c-2 -4 -4 -19 -3 -33 1 -25 -44 -80 -65 -80 -6 0 -8 -5
-5 -10 5 -8 11 -8 19 -1 17 14 55 -21 58 -52 1 -12 2 -29 4 -37 1 -8 2 -21 3
-28 1 -7 5 -11 9 -8 5 3 8 24 7 46 -1 23 2 43 7 46 5 3 6 9 3 14 -6 9 25 25
57 29 11 1 3 16 -10 16 -40 3 -56 23 -68 83 -3 18 -11 25 -16 15z"/>
<path d="M169 1668 c-8 -12 -23 -21 -32 -21 -27 0 -46 -29 -36 -54 4 -13 13
-23 19 -23 5 0 10 -7 10 -16 0 -10 -6 -14 -15 -10 -9 3 -19 -3 -26 -15 -8 -15
-18 -20 -35 -16 -13 2 -32 -1 -41 -8 -16 -12 -16 -14 0 -39 15 -22 83 -66 102
-66 3 0 14 18 24 41 13 29 16 50 11 74 l-8 34 40 -2 c43 -3 56 7 64 49 3 16 7
30 9 32 2 2 -1 17 -7 33 -12 36 -55 40 -79 7z"/>
<path d="M344 1538 l-21 -10 22 -65 c13 -36 21 -72 18 -81 -5 -12 -2 -12 15
-3 36 19 56 71 27 71 -17 0 -20 21 -5 36 6 6 2 19 -13 36 -18 22 -26 25 -43
16z"/>
<path d="M2300 1490 c0 -22 -5 -40 -11 -40 -5 0 -8 -4 -5 -9 3 -5 -8 -14 -24
-21 -37 -15 -49 -31 -19 -25 41 8 80 -56 70 -117 0 -5 4 -8 9 -8 6 0 10 6 9
13 -6 46 3 80 27 102 15 14 30 22 35 19 5 -3 9 -1 9 5 0 6 -12 14 -27 17 -34
9 -52 31 -48 59 1 11 -4 26 -12 33 -11 11 -13 6 -13 -28z"/>
<path d="M524 1468 c-5 -8 -15 -17 -23 -19 -11 -4 -11 -7 1 -17 22 -18 55 8
41 33 -9 15 -12 16 -19 3z"/>
<path d="M447 1446 c-3 -8 1 -17 9 -20 8 -3 14 1 14 9 0 20 -17 28 -23 11z"/>
<path d="M266 1365 c-8 -8 -24 -15 -35 -15 -42 0 -38 -47 6 -67 39 -18 47 -16
64 15 27 48 0 101 -35 67z"/>
</g>
</svg>
